<?xml version="1.0" encoding="utf-8" ?><svg xmlns="http://www.w3.org/2000/svg" xmlns:xlink="http://www.w3.org/1999/xlink" width="1500" height="1500" viewBox="0 0 1500 1500"><path fill="#16162A" d="M750 0Q676.131 0 603.682 14.411Q531.232 28.8221 462.987 57.0903Q394.742 85.3586 333.323 126.398Q271.904 167.438 219.671 219.671Q167.438 271.904 126.398 333.323Q85.3586 394.742 57.0903 462.987Q28.8221 531.232 14.411 603.682Q0 676.131 0 750Q0 823.869 14.411 896.318Q28.8221 968.768 57.0903 1037.01Q85.3586 1105.26 126.398 1166.68Q167.438 1228.1 219.671 1280.33Q271.904 1332.56 333.323 1373.6Q394.742 1414.64 462.987 1442.91Q531.232 1471.18 603.682 1485.59Q676.131 1500 750 1500Q823.869 1500 896.318 1485.59Q968.768 1471.18 1037.01 1442.91Q1105.26 1414.64 1166.68 1373.6Q1228.1 1332.56 1280.33 1280.33Q1332.56 1228.1 1373.6 1166.68Q1414.64 1105.26 1442.91 1037.01Q1471.18 968.768 1485.59 896.318Q1500 823.869 1500 750Q1500 676.131 1485.59 603.682Q1471.18 531.232 1442.91 462.987Q1414.64 394.742 1373.6 333.323Q1332.56 271.904 1280.33 219.671Q1228.1 167.438 1166.68 126.398Q1105.26 85.3586 1037.01 57.0903Q968.768 28.8221 896.318 14.411Q823.869 0 750 0Z"/><path fill="white" d="M723.949 147.225C738.083 146.732 758.339 146.332 772.212 147.546C849.934 154.964 925.155 189.31 983.969 262.381C1059.85 356.662 1069.68 502.83 998.59 608.076C926.505 714.804 811.349 751.321 709.656 734.94C677.95 729.831 647.458 717.821 616.144 709.895C586.762 702.407 556.519 701.458 526.752 702.292C469.405 705.978 394.307 727.875 353.145 787.815C339.759 808.191 331.201 831.954 332.475 859.953C334.075 898.772 356.085 934.083 378.421 955.373C422.703 997.573 475.726 1018.81 528.906 1022.2C572.724 1025 613.443 1018.7 652.919 990.197C667.956 979.335 680.951 965.766 695.172 953.194C785.712 873.92 934.92 885.995 1014.87 987.66C1015.64 988.457 1016.92 990.22 1017.66 991.187C1043.75 1025.23 1063.85 1070.24 1065.33 1121.17C1066.75 1169.72 1048.73 1218.62 1025.28 1253.26C979.095 1321.51 906.247 1348.29 840.968 1349.86C823.046 1350.29 803.504 1347.29 785.923 1343.02C738.742 1331.57 695.274 1308.19 658.029 1265.49C648.819 1254.93 640.07 1242.52 630.766 1231.87C610.758 1208.97 591.134 1192.2 567.248 1178.16C530.222 1156.4 492.544 1147.42 454.037 1133.56C382.384 1107.76 299.437 1068 244.235 996.495C237.496 987.766 227.346 971.941 222.938 961.501C213.047 938.078 207.109 912.446 206.452 885.52C204.699 813.687 219.771 752.698 258.355 703.822C270.159 688.471 283.215 676.973 296.191 663.64C337.78 620.904 386.119 581.958 415.854 521.324C427.755 497.056 437.63 463.755 443.55 435.747C446.304 422.716 446.595 405.652 449.963 392.413C458.321 349.175 474.864 308.652 497.101 276.31C548.892 200.984 630.059 158.28 703.616 149.431C710.31 148.626 717.274 147.418 723.949 147.225Z"/></svg>