<?xml version="1.0" encoding="utf-8" ?><svg xmlns="http://www.w3.org/2000/svg" xmlns:xlink="http://www.w3.org/1999/xlink" width="1759" height="2463" viewBox="0 0 1759 2463"><path transform="matrix(1.1649 0 0 1.16509 -0.000244141 6.10352e-05)" d="M906.479 36.6779C930.549 35.8352 965.044 35.1538 988.67 37.2255C1121.03 49.886 1249.13 108.51 1349.29 233.234C1478.52 394.159 1495.25 643.649 1374.19 823.289C1251.43 1005.46 1055.32 1067.79 882.138 1039.83C828.142 1031.11 776.216 1010.61 722.888 997.081C672.85 984.301 621.347 982.681 570.654 984.104C472.993 990.395 345.102 1027.77 275.003 1130.08C252.208 1164.86 237.633 1205.42 239.803 1253.21C242.527 1319.47 280.011 1379.74 318.049 1416.08C393.461 1488.11 483.757 1524.36 574.323 1530.15C648.944 1534.93 718.288 1524.17 785.515 1475.52C811.123 1456.98 833.254 1433.82 857.472 1412.36C1011.66 1277.05 1265.76 1297.66 1401.92 1471.19C1403.23 1472.55 1405.4 1475.56 1406.66 1477.21C1451.1 1535.32 1485.32 1612.14 1487.85 1699.07C1490.26 1781.94 1459.57 1865.4 1419.64 1924.54C1340.99 2041.02 1216.93 2086.73 1105.76 2089.42C1075.24 2090.16 1041.96 2085.03 1012.02 2077.74C931.671 2058.2 857.645 2018.3 794.217 1945.41C778.533 1927.39 763.633 1906.2 747.789 1888.02C713.715 1848.93 680.297 1820.31 639.618 1796.35C576.563 1759.21 512.399 1743.88 446.822 1720.22C324.797 1676.18 183.54 1608.32 89.5308 1486.27C78.0551 1471.37 60.7695 1444.36 53.2618 1426.54C36.4177 1386.56 26.3065 1342.81 25.1873 1296.85C22.2017 1174.24 47.8694 1070.14 113.578 986.715C133.68 960.513 155.913 940.888 178.011 918.13C248.838 845.186 331.158 778.71 381.796 675.216C402.063 633.793 418.88 576.953 428.962 529.147C433.652 506.904 434.148 477.779 439.884 455.181C454.118 381.38 482.29 312.212 520.159 257.009C608.358 128.436 746.585 55.5462 871.851 40.4429C883.252 39.0682 895.112 37.0074 906.479 36.6779Z"/></svg>