<svg width="4073" height="1000" viewBox="0 0 4073 1000" fill="none" xmlns="http://www.w3.org/2000/svg">
<path d="M1157.81 707.532C1117.55 707.532 1081.83 700.365 1050.67 686.03C1019.63 671.696 995.255 650.694 977.553 623.023C959.851 595.352 951 561.387 951 521.127V502.243H1032.9V521.127C1032.9 559.393 1044.31 587.936 1067.12 606.757C1090.06 625.454 1120.29 634.802 1157.81 634.802C1195.96 634.802 1224.76 626.7 1244.21 610.497C1263.78 594.293 1273.56 573.602 1273.56 548.424C1273.56 531.348 1269.01 517.574 1259.91 507.104C1250.81 496.51 1237.72 487.909 1220.64 481.303C1203.69 474.697 1183.5 468.652 1160.06 463.167L1131.45 456.437C1097.29 448.459 1067.62 438.425 1042.44 426.335C1017.38 414.12 997.935 398.103 984.098 378.285C970.385 358.466 963.529 332.852 963.529 301.442C963.529 270.032 971.195 243.046 986.529 220.486C1001.99 197.801 1023.55 180.413 1051.23 168.322C1079.03 156.107 1111.5 150 1148.65 150C1185.93 150 1219.21 156.419 1248.51 169.257C1277.8 181.971 1300.93 200.854 1317.88 225.907C1334.84 250.961 1343.31 282.371 1343.31 320.138V347.622H1261.41V320.138C1261.41 297.079 1256.67 278.445 1247.2 264.236C1237.85 250.027 1224.7 239.619 1207.74 233.013C1190.79 226.282 1171.09 222.916 1148.65 222.916C1115.74 222.916 1090.31 229.647 1072.36 243.109C1054.41 256.446 1045.43 275.267 1045.43 299.572C1045.43 315.652 1049.42 328.926 1057.4 339.396C1065.38 349.867 1076.97 358.404 1092.18 365.01C1107.51 371.617 1126.46 377.537 1149.03 382.772L1177.64 389.503C1212.29 397.106 1242.96 407.015 1269.64 419.231C1296.31 431.321 1317.26 447.525 1332.47 467.842C1347.8 488.159 1355.47 514.396 1355.47 546.555C1355.47 578.588 1347.36 606.695 1331.16 630.876C1314.95 655.057 1292.01 673.878 1262.34 687.339C1232.8 700.801 1197.96 707.532 1157.81 707.532ZM1487.76 850V780.822H1698.31C1712.9 780.822 1720.19 773.157 1720.19 757.826V641.907H1708.04C1703.3 651.878 1696.19 661.6 1686.72 671.073C1677.24 680.546 1664.59 688.336 1648.76 694.444C1632.93 700.551 1612.92 703.605 1588.73 703.605C1560.19 703.605 1534.69 697.248 1512.25 684.535C1489.94 671.697 1472.42 653.561 1459.71 630.128C1446.99 606.695 1440.64 578.9 1440.64 546.742V319.764H1519.36V540.571C1519.36 573.352 1527.46 597.533 1543.67 613.114C1560 628.57 1582.63 636.298 1611.55 636.298C1644.21 636.298 1670.33 625.516 1689.9 603.952C1709.47 582.389 1719.26 551.228 1719.26 510.469V319.764H1797.98V773.905C1797.98 797.213 1791.25 815.722 1777.79 829.433C1764.45 843.144 1746 850 1722.43 850H1487.76ZM1914.84 696.875V319.764H1992.07V376.228H2004.22C2011.45 360.648 2024.17 346.251 2042.37 333.039C2060.69 319.702 2087.93 313.034 2124.09 313.034C2152.89 313.034 2178.38 319.391 2200.56 332.104C2222.88 344.818 2240.4 362.891 2253.12 386.325C2265.83 409.633 2272.18 437.616 2272.18 470.272V696.875H2193.46V476.255C2193.46 443.349 2185.3 419.168 2168.96 403.713C2152.76 388.132 2130.19 380.341 2101.27 380.341C2068.61 380.341 2042.49 391.185 2022.92 412.873C2003.35 434.437 1993.56 465.598 1993.56 506.356V696.875H1914.84ZM2502.38 707.532C2475.7 707.532 2451.64 702.92 2430.2 693.696C2408.88 684.473 2391.99 670.949 2379.52 653.124C2367.18 635.176 2361.02 613.488 2361.02 588.06C2361.02 562.384 2367.18 540.945 2379.52 523.744C2391.99 506.544 2409.07 493.643 2430.76 485.043C2452.58 476.318 2477.26 471.955 2504.81 471.955H2620.37V447.649C2620.37 425.462 2613.64 407.701 2600.18 394.364C2586.84 380.903 2566.4 374.172 2538.85 374.172C2511.79 374.172 2491.1 380.591 2476.76 393.429C2462.43 406.143 2452.95 422.907 2448.34 443.723L2375.03 419.605C2381.15 399.412 2390.93 381.027 2404.39 364.449C2417.86 347.747 2435.81 334.348 2458.25 324.252C2480.69 314.031 2507.87 308.921 2539.78 308.921C2588.77 308.921 2627.23 321.385 2655.16 346.314C2683.08 371.118 2697.04 406.641 2697.04 452.885V608.252C2697.04 623.584 2704.21 631.25 2718.54 631.25H2751.08V696.875H2692.18C2674.35 696.875 2659.83 692.263 2648.61 683.039C2637.39 673.691 2631.78 661.164 2631.78 645.459V643.216H2619.62C2616.01 651.068 2610.02 660.104 2601.67 670.325C2593.45 680.546 2581.35 689.334 2565.4 696.688C2549.56 703.917 2528.56 707.532 2502.38 707.532ZM2514.35 642.281C2545.76 642.281 2571.26 633.244 2590.83 615.171C2610.52 597.097 2620.37 572.355 2620.37 540.945V532.719H2509.67C2488.73 532.719 2471.83 537.206 2459 546.181C2446.16 555.154 2439.74 568.304 2439.74 585.63C2439.74 603.08 2446.41 616.916 2459.75 627.137C2473.08 637.233 2491.29 642.281 2514.35 642.281ZM2827.82 850V319.764H2905.05V373.424H2917.2C2926.55 356.597 2941.2 341.64 2961.15 328.552C2981.09 315.465 3009.33 308.921 3045.86 308.921C3077.4 308.921 3106.32 316.586 3132.62 331.917C3159.05 347.124 3180.18 369.186 3196.01 398.103C3211.97 427.021 3219.94 461.859 3219.94 502.617V513.836C3219.94 554.469 3212.03 589.307 3196.19 618.349C3180.49 647.391 3159.42 669.515 3132.99 684.722C3106.57 699.929 3077.52 707.532 3045.86 707.532C3021.42 707.532 3000.79 704.478 2983.97 698.37C2967.13 692.388 2953.55 684.598 2943.2 675C2932.85 665.402 2924.69 655.618 2918.7 645.646H2906.54V850H2827.82ZM3023.04 638.354C3057.45 638.354 3085.63 627.385 3107.56 605.448C3129.63 583.511 3140.66 552.287 3140.66 511.778V504.674C3140.66 464.164 3129.56 433.003 3107.37 411.191C3085.31 389.254 3057.2 378.285 3023.04 378.285C2989.13 378.285 2961.08 389.254 2938.9 411.191C2916.71 433.003 2905.61 464.164 2905.61 504.674V511.778C2905.61 552.287 2916.71 583.511 2938.9 605.448C2961.08 627.385 2989.13 638.354 3023.04 638.354ZM3473.05 707.532C3425.05 707.532 3385.16 696.813 3353.37 675.374C3321.71 653.935 3302.45 621.652 3295.6 578.526L3369.27 560.576C3373.01 581.641 3379.8 598.219 3389.65 610.31C3399.5 622.4 3411.65 631.063 3426.11 636.298C3440.57 641.408 3456.22 643.964 3473.05 643.964C3498.35 643.964 3517.74 639.227 3531.2 629.754C3544.67 620.156 3551.4 607.692 3551.4 592.36C3551.4 576.905 3544.98 565.562 3532.14 558.333C3519.42 551.104 3500.66 545.308 3475.86 540.945L3449.67 536.271C3424.12 531.534 3400.87 524.804 3379.93 516.079C3359.11 507.229 3342.47 495.201 3330 479.994C3317.54 464.663 3311.3 445.094 3311.3 421.287C3311.3 385.514 3324.64 357.843 3351.32 338.275C3378.12 318.706 3413.46 308.921 3457.34 308.921C3499.73 308.921 3534.57 318.456 3561.87 337.526C3589.17 356.472 3606.82 382.211 3614.79 414.743L3541.49 435.871C3537.01 412.936 3527.34 396.67 3512.5 387.073C3497.67 377.475 3479.28 372.676 3457.34 372.676C3435.65 372.676 3418.7 376.665 3406.48 384.641C3394.27 392.494 3388.16 403.712 3388.16 418.296C3388.16 433.502 3394.14 444.658 3406.1 451.763C3418.07 458.867 3434.34 464.227 3454.91 467.842L3481.28 472.329C3508.83 477.19 3533.7 483.733 3555.89 491.96C3578.2 500.187 3595.84 511.903 3608.8 527.109C3621.77 542.192 3628.25 562.446 3628.25 587.873C3628.25 626.139 3614.23 655.68 3586.18 676.496C3558.13 697.187 3520.42 707.532 3473.05 707.532ZM3893.3 707.532C3855.4 707.532 3822.12 699.492 3793.45 683.413C3764.77 667.334 3742.39 644.711 3726.31 615.545C3710.36 586.253 3702.38 552.038 3702.38 512.9V503.739C3702.38 464.476 3710.29 430.261 3726.12 401.094C3741.96 371.804 3764.02 349.118 3792.32 333.039C3820.74 316.96 3853.47 308.921 3890.5 308.921C3926.89 308.921 3958.74 316.898 3986.05 332.852C4013.35 348.682 4034.66 370.931 4050 399.599C4065.33 428.267 4073 461.796 4073 500.187V530.102H3782.23C3783.47 563.381 3794.76 589.744 3816.07 609.188C3837.39 628.632 3863.81 638.354 3895.36 638.354C3925.15 638.354 3947.53 631.81 3962.49 618.723C3977.45 605.511 3988.92 590.242 3996.9 572.916L4062.53 606.196C4055.17 620.655 4044.7 635.799 4031.11 651.629C4017.65 667.334 3999.88 680.609 3977.82 691.453C3955.75 702.172 3927.58 707.532 3893.3 707.532ZM3782.97 469.524H3992.78C3990.78 441.105 3980.5 418.794 3961.92 402.591C3943.48 386.387 3919.48 378.285 3889.93 378.285C3860.01 378.285 3835.77 386.387 3817.19 402.591C3798.74 418.794 3787.33 441.105 3782.97 469.524Z" fill="white"/>
<path d="M430.209 0.399133C441.956 -0.0112132 458.791 -0.343016 470.321 0.665782C534.916 6.83071 597.433 35.3772 646.314 96.1106C709.382 174.472 717.547 295.959 658.466 383.433C598.555 472.14 502.848 502.491 418.33 488.876C391.978 484.63 366.637 474.648 340.611 468.06C316.191 461.837 291.056 461.048 266.317 461.741C218.655 464.804 156.241 483.003 122.03 532.823C110.906 549.758 103.793 569.509 104.852 592.78C106.181 625.044 124.475 654.392 143.038 672.088C179.841 707.162 223.909 724.814 268.107 727.633C304.525 729.961 338.366 724.722 371.175 701.032C383.673 692.004 394.473 680.726 406.292 670.277C481.541 604.388 605.549 614.424 671.999 698.923C672.638 699.586 673.697 701.051 674.312 701.855C696 730.151 712.7 767.558 713.935 809.888C715.111 850.241 700.134 890.881 680.647 919.679C642.263 976.398 581.718 998.656 527.464 999.966C512.569 1000.33 496.328 997.828 481.716 994.278C442.504 984.763 406.377 965.334 375.422 929.841C367.768 921.066 360.496 910.748 352.764 901.895C336.135 882.861 319.826 868.925 299.973 857.257C269.201 839.172 237.887 831.708 205.883 820.186C146.331 798.742 77.3938 765.698 31.5146 706.266C25.9141 699.011 17.4782 685.859 13.8143 677.181C5.59386 657.713 0.659295 636.41 0.113092 614.03C-1.34397 554.326 11.1826 503.635 43.2503 463.012C53.0607 450.253 63.9111 440.697 74.6955 429.615C109.261 394.096 149.436 361.726 174.149 311.33C184.039 291.16 192.247 263.482 197.167 240.203C199.456 229.372 199.698 215.19 202.497 204.186C209.444 168.249 223.193 134.568 241.674 107.688C284.717 45.08 352.176 9.5869 413.31 2.23247C418.874 1.56307 424.662 0.55958 430.209 0.399133Z" fill="white"/>
</svg>
